<svg width="137" height="141" viewBox="0 0 137 141" fill="none" xmlns="http://www.w3.org/2000/svg">
<path d="M102.311 45.7497H93.8914L91.5514 39.8997C89.1468 33.8852 83.4078 29.9997 76.9292 29.9997H59.0698C52.5926 29.9997 46.8523 33.8852 44.4462 39.8997L42.1062 45.7497H33.6884C32.5901 45.7497 31.7843 46.7819 32.0515 47.8464L32.8953 51.2214C33.0823 51.9724 33.7573 52.4997 34.5321 52.4997H37.3545C35.4659 54.1493 34.2495 56.5469 34.2495 59.2497V65.9997C34.2495 68.2666 35.1157 70.3127 36.4995 71.8961V79.4997C36.4995 81.9846 38.5147 83.9997 40.9995 83.9997H45.4995C47.9844 83.9997 49.9995 81.9846 49.9995 79.4997V74.9997H85.9996V79.4997C85.9996 81.9846 88.0147 83.9997 90.4996 83.9997H94.9996C97.4844 83.9997 99.4996 81.9846 99.4996 79.4997V71.8961C100.883 70.3141 101.75 68.268 101.75 65.9997V59.2497C101.75 56.5469 100.533 54.1493 98.646 52.4997H101.468C102.243 52.4997 102.918 51.9724 103.105 51.2214L103.949 47.8464C104.215 46.7819 103.409 45.7497 102.311 45.7497ZM52.8022 43.2424C53.8273 40.6802 56.3094 38.9997 59.0698 38.9997H76.9292C79.6897 38.9997 82.1717 40.6802 83.1969 43.2424L85.9996 50.2497H49.9995L52.8022 43.2424ZM45.4995 65.9716C42.7995 65.9716 40.9995 64.1772 40.9995 61.4857C40.9995 58.7941 42.7995 56.9997 45.4995 56.9997C48.1995 56.9997 52.2495 61.0371 52.2495 63.7286C52.2495 66.4202 48.1995 65.9716 45.4995 65.9716ZM90.4996 65.9716C87.7996 65.9716 83.7496 66.4202 83.7496 63.7286C83.7496 61.0371 87.7996 56.9997 90.4996 56.9997C93.1996 56.9997 94.9996 58.7941 94.9996 61.4857C94.9996 64.1772 93.1996 65.9716 90.4996 65.9716Z" fill="#1D1F24"/>
<path d="M111 35.4997C111 29.3515 108.688 23.4279 104.524 18.9048C100.359 14.3818 94.6465 11.5898 88.5192 11.0831L88.253 14.3013C93.5728 14.7413 98.5326 17.1652 102.148 21.0922C105.764 25.0191 107.771 30.1618 107.771 35.4997H111Z" fill="#1D1F24"/>
<path d="M100 34.4997C100 31.3629 98.8206 28.3406 96.6959 26.0329C94.5711 23.7253 91.6564 22.3008 88.5302 22.0422L88.3005 24.8198C90.7297 25.0207 92.9945 26.1276 94.6455 27.9207C96.2965 29.7139 97.213 32.0623 97.213 34.4997H100Z" fill="#1D1F24"/>
<path d="M121.811 39.1568C122.317 34.2713 121.804 29.3339 120.304 24.657C118.803 19.98 116.349 15.6652 113.096 11.9855C109.842 8.30585 105.861 5.34129 101.403 3.27937C96.9451 1.21745 92.1078 0.103018 87.1971 0.00657027L87.1317 3.33681C91.5816 3.42421 95.965 4.43407 100.005 6.30253C104.044 8.17099 107.652 10.8574 110.6 14.1918C113.548 17.5263 115.772 21.4362 117.132 25.6743C118.491 29.9124 118.956 34.3865 118.498 38.8137L121.811 39.1568Z" fill="#1D1F24"/>
<path d="M12.296 131.448C7.424 131.448 4.843 128.519 4.843 123.85C4.843 119.181 7.424 116.281 12.296 116.281C17.023 116.281 18.792 119.094 19.372 121.762H23.113C22.185 116.02 17.603 113.294 12.296 113.294C6.67 113.294 1.16 116.339 1.16 123.85C1.16 131.361 6.67 134.435 12.296 134.435C17.603 134.435 22.185 131.709 23.113 125.967H19.372C18.792 128.635 17.023 131.448 12.296 131.448ZM33.2315 118.108C29.2295 118.108 26.2135 119.703 25.7495 122.951H29.0845C29.3455 121.646 30.4765 120.747 33.2315 120.747C36.4505 120.747 37.5525 121.82 37.5525 123.966V124.923C26.8805 124.227 25.1405 126.75 25.1405 129.94C25.1405 132.898 27.6055 134.435 31.3175 134.435C34.9425 134.435 36.7985 132.869 37.5525 131.999V134H41.1195V123.966C41.1195 119.529 37.4945 118.108 33.2315 118.108ZM37.5525 129.65C36.5955 131.042 34.7975 132.057 32.0715 132.057C30.0125 132.057 28.7945 131.274 28.7945 129.708C28.7945 127.301 31.1145 126.75 37.5525 127.069V129.65ZM54.9632 118.108C51.6282 118.108 49.4822 120.312 48.7862 121.443V118.543H45.1902V134H48.7862V126.141C48.7862 123.734 50.2652 121.472 54.1802 121.472C55.1662 121.472 55.9492 121.588 56.5582 121.762H56.6742V118.224C56.0652 118.137 55.6592 118.108 54.9632 118.108ZM58.1024 130.462C57.0004 130.462 56.1014 131.332 56.1014 132.434C56.1014 133.536 57.0004 134.406 58.1024 134.406C59.1754 134.406 60.0744 133.536 60.0744 132.434C60.0744 131.332 59.1754 130.462 58.1024 130.462ZM75.7285 113.7H63.5485V134H67.1155V127.127H75.1775C80.7745 127.127 83.0655 124.285 83.0655 120.399C83.0655 116.919 81.2385 113.7 75.7285 113.7ZM75.1775 124.14H67.1155V116.716H75.1195C78.1355 116.716 79.3825 118.108 79.3825 120.399C79.3825 122.516 78.3095 124.14 75.1775 124.14ZM92.9024 118.108C88.9004 118.108 85.8844 119.703 85.4204 122.951H88.7554C89.0164 121.646 90.1474 120.747 92.9024 120.747C96.1214 120.747 97.2234 121.82 97.2234 123.966V124.923C86.5514 124.227 84.8114 126.75 84.8114 129.94C84.8114 132.898 87.2764 134.435 90.9884 134.435C94.6134 134.435 96.4694 132.869 97.2234 131.999V134H100.79V123.966C100.79 119.529 97.1654 118.108 92.9024 118.108ZM97.2234 129.65C96.2664 131.042 94.4684 132.057 91.7424 132.057C89.6834 132.057 88.4654 131.274 88.4654 129.708C88.4654 127.301 90.7854 126.75 97.2234 127.069V129.65ZM114.634 118.108C111.299 118.108 109.153 120.312 108.457 121.443V118.543H104.861V134H108.457V126.141C108.457 123.734 109.936 121.472 113.851 121.472C114.837 121.472 115.62 121.588 116.229 121.762H116.345V118.224C115.736 118.137 115.33 118.108 114.634 118.108ZM131.428 134H135.662L128.702 124.662L135.285 118.543H130.819L122.844 126.054V113.7H119.248V134H122.844V130.114L126.179 126.982L131.428 134Z" fill="#1D1F24"/>
</svg>
