<svg width="91" height="85" viewBox="0 0 91 85" fill="none" xmlns="http://www.w3.org/2000/svg">
<path d="M70.8107 46.25H62.3914L60.0514 40.4C57.6468 34.3855 51.9078 30.5 45.4292 30.5H27.5698C21.0926 30.5 15.3523 34.3855 12.9462 40.4L10.6062 46.25H2.1884C1.09011 46.25 0.284332 47.2822 0.55152 48.3467L1.39527 51.7217C1.5823 52.4727 2.2573 53 3.03215 53H5.8545C3.9659 54.6495 2.74949 57.0472 2.74949 59.75V66.5C2.74949 68.7669 3.61574 70.813 4.99949 72.3964V80C4.99949 82.4848 7.01465 84.5 9.4995 84.5H13.9995C16.4844 84.5 18.4995 82.4848 18.4995 80V75.5H54.4996V80C54.4996 82.4848 56.5147 84.5 58.9996 84.5H63.4996C65.9844 84.5 67.9996 82.4848 67.9996 80V72.3964C69.3833 70.8144 70.2496 68.7683 70.2496 66.5V59.75C70.2496 57.0472 69.0332 54.6495 67.146 53H69.9683C70.7432 53 71.4182 52.4727 71.6052 51.7217L72.449 48.3467C72.7147 47.2822 71.909 46.25 70.8107 46.25ZM21.3022 43.7427C22.3273 41.1805 24.8094 39.5 27.5698 39.5H45.4292C48.1897 39.5 50.6717 41.1805 51.6969 43.7427L54.4996 50.75H18.4995L21.3022 43.7427ZM13.9995 66.4719C11.2995 66.4719 9.4995 64.6775 9.4995 61.9859C9.4995 59.2944 11.2995 57.5 13.9995 57.5C16.6995 57.5 20.7495 61.5373 20.7495 64.2289C20.7495 66.9205 16.6995 66.4719 13.9995 66.4719ZM58.9996 66.4719C56.2996 66.4719 52.2496 66.9205 52.2496 64.2289C52.2496 61.5373 56.2996 57.5 58.9996 57.5C61.6996 57.5 63.4996 59.2944 63.4996 61.9859C63.4996 64.6775 61.6996 66.4719 58.9996 66.4719V66.4719Z" fill="white"/>
<path d="M79.5 36C79.5 29.8517 77.1884 23.9282 73.0239 19.4051C68.8594 14.882 63.1465 12.0901 57.0192 11.5833L56.753 14.8016C62.0728 15.2415 67.0326 17.6655 70.6482 21.5924C74.2638 25.5193 76.2707 30.6621 76.2707 36H79.5Z" fill="white"/>
<path d="M68.5 35C68.5 31.8631 67.3206 28.8409 65.1959 26.5332C63.0711 24.2255 60.1564 22.8011 57.0302 22.5425L56.8005 25.3201C59.2297 25.521 61.4945 26.6278 63.1455 28.421C64.7965 30.2142 65.713 32.5625 65.713 35H68.5Z" fill="white"/>
<path d="M90.3111 39.6571C90.8171 34.7716 90.3038 29.8342 88.8036 25.1572C87.3034 20.4803 84.8491 16.1655 81.5957 12.4858C78.3424 8.80613 74.3609 5.84157 69.903 3.77964C65.4451 1.71772 60.6078 0.603293 55.6971 0.506845L55.6317 3.83709C60.0816 3.92448 64.465 4.93435 68.5047 6.80281C72.5443 8.67127 76.1522 11.3577 79.1003 14.6921C82.0484 18.0265 84.2725 21.9365 85.6319 26.1746C86.9913 30.4127 87.4565 34.8868 86.998 39.3139L90.3111 39.6571Z" fill="white"/>
</svg>
